<?xml version="1.0" encoding="UTF-8"?>
<svg version="1.1" xmlns="http://www.w3.org/2000/svg" width="500" height="500">
<path d="M0 0 C10.60498164 8.3738362 18.24118197 18.17195774 24.375 30.1875 C24.70918945 30.84065186 25.04337891 31.49380371 25.38769531 32.16674805 C28.42365481 38.37389387 30 44.00297746 30 51 C38.58 51 47.16 51 56 51 C57 55 57 55 56.12646484 56.66894531 C55.65934082 57.21647461 55.1922168 57.76400391 54.7109375 58.328125 C54.18806152 58.95477051 53.66518555 59.58141602 53.12646484 60.22705078 C52.54848145 60.89462402 51.97049805 61.56219727 51.375 62.25 C50.16636839 63.68985384 48.95804354 65.12996523 47.75 66.5703125 C47.12609375 67.30540039 46.5021875 68.04048828 45.859375 68.79785156 C42.98462346 72.20255992 40.180989 75.66361608 37.375 79.125 C36.83979736 79.77831299 36.30459473 80.43162598 35.75317383 81.10473633 C33.07795795 84.38003857 30.46733536 87.68408095 27.94921875 91.08203125 C27.46211426 91.73091309 26.97500977 92.37979492 26.47314453 93.04833984 C25.56005274 94.27116855 24.66027363 95.50409993 23.77685547 96.74853516 C21.65350523 99.57660722 20.27298291 100.9090057 16.8828125 102.0390625 C14 102 14 102 12.26953125 101.05859375 C11.78871094 100.52363281 11.30789063 99.98867188 10.8125 99.4375 C9.93271484 98.46490234 9.93271484 98.46490234 9.03515625 97.47265625 C6.07471838 93.87580947 3.1831369 90.22861595 0.33374023 86.54321289 C-2.87944598 82.38886208 -6.2020937 78.35764577 -9.625 74.375 C-13.22831401 70.14740363 -16.77852185 65.8864825 -20.1875 61.5 C-20.92355469 60.5615625 -21.65960938 59.623125 -22.41796875 58.65625 C-24 56 -24 56 -24 51 C-11.625 50.505 -11.625 50.505 1 50 C-7.02848804 32.93946291 -15.27010693 21.48139934 -33.671875 14.7109375 C-37.13584606 13.65314768 -40.38714295 13.15331312 -44 13 C-44.84304687 12.96003906 -45.68609375 12.92007813 -46.5546875 12.87890625 C-61.14055508 12.52768848 -74.00437326 16.46761362 -85.125 26.125 C-94.11002227 34.81162669 -100.81066928 46.54423984 -101.43359375 59.26953125 C-101.45700706 61.11703961 -101.45774444 62.9649542 -101.4375 64.8125 C-101.42992676 65.78082764 -101.42235352 66.74915527 -101.41455078 67.74682617 C-101.15077561 79.21912092 -98.02696486 87.93623373 -91 97 C-90.48695313 97.68835938 -89.97390625 98.37671875 -89.4453125 99.0859375 C-81.66481457 108.8022531 -70.50256655 114.17802145 -58.5 116.75 C-43.10161973 117.8498843 -28.52678867 115.9981349 -16.2734375 105.7109375 C-15.52320313 105.14632812 -14.77296875 104.58171875 -14 104 C-10.03778772 105.32073743 -8.51670924 107.89096987 -6.125 111.125 C-5.68172363 111.71450439 -5.23844727 112.30400879 -4.78173828 112.91137695 C-3.51400103 114.60239215 -2.25637565 116.30053694 -1 118 C-0.41734375 118.77472656 0.1653125 119.54945313 0.765625 120.34765625 C4 124.72521552 4 124.72521552 4 127 C2.07294004 128.53741931 0.16262455 129.93524552 -1.875 131.3125 C-2.46563232 131.71549316 -3.05626465 132.11848633 -3.66479492 132.53369141 C-8.57161227 135.82434029 -13.58391947 138.62518479 -19 141 C-19.65097656 141.29519531 -20.30195313 141.59039062 -20.97265625 141.89453125 C-38.79951792 149.32544073 -62.18318492 147.68194286 -80.0625 141.375 C-90.94747017 136.61169359 -100.63325699 129.3516678 -109 121 C-109.62261719 120.38898438 -110.24523437 119.77796875 -110.88671875 119.1484375 C-125.56727024 103.64313592 -131.5996123 82.42234611 -131.1796875 61.49609375 C-129.96238283 37.81157901 -119.7153957 18.78222427 -102.59765625 2.75 C-73.57829826 -21.97198218 -30.21306923 -22.6967319 0 0 Z " fill="#FAFAFA" transform="translate(287,185)"/>
</svg>
